<?xml version="1.0" encoding="UTF-8" standalone="no"?>
<!DOCTYPE svg PUBLIC "-//W3C//DTD SVG 1.1//EN" "http://www.w3.org/Graphics/SVG/1.1/DTD/svg11.dtd">
<svg width="100%" height="100%" viewBox="0 0 200 200" version="1.1" xmlns="http://www.w3.org/2000/svg" xmlns:xlink="http://www.w3.org/1999/xlink" xml:space="preserve" xmlns:serif="http://www.serif.com/" style="fill-rule:evenodd;clip-rule:evenodd;stroke-linejoin:round;stroke-miterlimit:2;">
    <path d="M100,0c0,0 -5.025,68.654 -5.025,98.077c0,2.773 2.252,5.025 5.025,5.025c2.773,-0 5.025,-2.252 5.025,-5.025c-0,-29.423 -5.025,-98.077 -5.025,-98.077Z" style="fill:#0f0f0f;"/>
    <path d="M118.21,184.11c0,-5.395 -8.16,-9.776 -18.21,-9.776c-10.05,-0 -18.21,4.381 -18.21,9.776c4.249,-1.619 10.946,-2.933 18.21,-2.933c7.264,0 13.961,1.314 18.21,2.933Z" style="fill:#0f0f0f;"/>
    <path d="M100,27.901l21.588,7.444l-43.176,-0l21.588,-7.444Z" style="fill:#0f0f0f;"/>
</svg>
