<?xml version="1.0" encoding="UTF-8" standalone="no"?>
<!DOCTYPE svg PUBLIC "-//W3C//DTD SVG 1.1//EN" "http://www.w3.org/Graphics/SVG/1.1/DTD/svg11.dtd">
<svg width="100%" height="100%" viewBox="0 0 200 200" version="1.1" xmlns="http://www.w3.org/2000/svg" xmlns:xlink="http://www.w3.org/1999/xlink" xml:space="preserve" xmlns:serif="http://www.serif.com/" style="fill-rule:evenodd;clip-rule:evenodd;stroke-linejoin:round;stroke-miterlimit:2;">
    <path d="M100,0c0,0 -5.025,68.654 -5.025,98.077c0,2.773 2.252,5.025 5.025,5.025c2.773,-0 5.025,-2.252 5.025,-5.025c-0,-29.423 -5.025,-98.077 -5.025,-98.077Z" style="fill:#0f0f0f;"/>
    <path d="M80.395,3.89c-0,5.395 8.785,9.776 19.605,9.776c10.82,0 19.605,-4.381 19.605,-9.776c-4.574,1.619 -11.784,2.933 -19.605,2.933c-7.821,-0 -15.031,-1.314 -19.605,-2.933Z" style="fill:#0f0f0f;"/>
    <path d="M100,27.901l21.588,7.444l-43.176,-0l21.588,-7.444Z" style="fill:#0f0f0f;"/>
    <path d="M74.452,61c-2.589,0.912 -3.952,1.947 -3.952,3c0,3.311 13.219,6 29.5,6c16.281,0 29.5,-2.689 29.5,-6c0,-1.053 -1.363,-2.088 -3.952,-3l-51.096,0Z" style="fill:#0f0f0f;"/>
</svg>
